{
	"patcher" : 	{
		"fileversion" : 1,
		"appversion" : 		{
			"major" : 8,
			"minor" : 0,
			"revision" : 1,
			"architecture" : "x64",
			"modernui" : 1
		}
,
		"classnamespace" : "box",
		"rect" : [ 1315.0, 85.0, 1210.0, 1280.0 ],
		"bglocked" : 0,
		"openinpresentation" : 0,
		"default_fontsize" : 12.0,
		"default_fontface" : 0,
		"default_fontname" : "Arial",
		"gridonopen" : 1,
		"gridsize" : [ 15.0, 15.0 ],
		"gridsnaponopen" : 1,
		"objectsnaponopen" : 1,
		"statusbarvisible" : 2,
		"toolbarvisible" : 1,
		"lefttoolbarpinned" : 0,
		"toptoolbarpinned" : 0,
		"righttoolbarpinned" : 0,
		"bottomtoolbarpinned" : 0,
		"toolbars_unpinned_last_save" : 0,
		"tallnewobj" : 0,
		"boxanimatetime" : 200,
		"enablehscroll" : 1,
		"enablevscroll" : 1,
		"devicewidth" : 0.0,
		"description" : "",
		"digest" : "",
		"tags" : "",
		"style" : "",
		"subpatcher_template" : "",
		"boxes" : [ 			{
				"box" : 				{
					"id" : "obj-6",
					"maxclass" : "newobj",
					"numinlets" : 2,
					"numoutlets" : 2,
					"outlettype" : [ "bang", "" ],
					"patching_rect" : [ 507.028076171875, 602.0, 34.0, 22.0 ],
					"text" : "sel 6"
				}

			}
, 			{
				"box" : 				{
					"id" : "obj-5",
					"maxclass" : "newobj",
					"numinlets" : 2,
					"numoutlets" : 2,
					"outlettype" : [ "bang", "" ],
					"patching_rect" : [ 421.0, 602.0, 34.0, 22.0 ],
					"text" : "sel 5"
				}

			}
, 			{
				"box" : 				{
					"id" : "obj-4",
					"maxclass" : "newobj",
					"numinlets" : 2,
					"numoutlets" : 2,
					"outlettype" : [ "bang", "" ],
					"patching_rect" : [ 323.52813720703125, 602.0, 34.0, 22.0 ],
					"text" : "sel 4"
				}

			}
, 			{
				"box" : 				{
					"id" : "obj-3",
					"maxclass" : "newobj",
					"numinlets" : 2,
					"numoutlets" : 2,
					"outlettype" : [ "bang", "" ],
					"patching_rect" : [ 227.0, 602.0, 34.0, 22.0 ],
					"text" : "sel 3"
				}

			}
, 			{
				"box" : 				{
					"id" : "obj-2",
					"maxclass" : "newobj",
					"numinlets" : 2,
					"numoutlets" : 2,
					"outlettype" : [ "bang", "" ],
					"patching_rect" : [ 137.0, 602.0, 34.0, 22.0 ],
					"text" : "sel 2"
				}

			}
, 			{
				"box" : 				{
					"id" : "obj-1",
					"maxclass" : "newobj",
					"numinlets" : 2,
					"numoutlets" : 2,
					"outlettype" : [ "bang", "" ],
					"patching_rect" : [ 52.0, 602.0, 34.0, 22.0 ],
					"text" : "sel 1"
				}

			}
, 			{
				"box" : 				{
					"bgcolor" : [ 0.113725, 0.580392, 0.737255, 1.0 ],
					"fontface" : 1,
					"fontname" : "Arial",
					"fontsize" : 10.0,
					"id" : "obj-157",
					"maxclass" : "comment",
					"numinlets" : 1,
					"numoutlets" : 0,
					"patching_rect" : [ 272.02813720703125, 46.0, 137.0, 18.0 ],
					"presentation" : 1,
					"presentation_rect" : [ 1323.028076171875, 231.46026611328125, 137.0, 18.0 ],
					"text" : "Arduino communication",
					"textcolor" : [ 1.0, 1.0, 1.0, 1.0 ]
				}

			}
, 			{
				"box" : 				{
					"fontsize" : 10.0,
					"id" : "obj-154",
					"maxclass" : "comment",
					"numinlets" : 1,
					"numoutlets" : 0,
					"patching_rect" : [ 721.028076171875, 95.96026611328125, 323.0, 18.0 ],
					"text" : "trying to reflect the audio volume adjusted with the potentiometer"
				}

			}
, 			{
				"box" : 				{
					"fontface" : 1,
					"fontsize" : 10.0,
					"id" : "obj-151",
					"maxclass" : "comment",
					"numinlets" : 1,
					"numoutlets" : 0,
					"patching_rect" : [ 992.028076171875, 332.96026611328125, 30.0, 18.0 ],
					"presentation" : 1,
					"presentation_rect" : [ 1606.528076171875, 144.3702392578125, 30.0, 18.0 ],
					"text" : "B"
				}

			}
, 			{
				"box" : 				{
					"fontsize" : 10.0,
					"id" : "obj-150",
					"maxclass" : "newobj",
					"numinlets" : 2,
					"numoutlets" : 1,
					"outlettype" : [ "float" ],
					"patching_rect" : [ 742.528076171875, 128.47015380859375, 41.0, 20.0 ],
					"text" : "/ 1023."
				}

			}
, 			{
				"box" : 				{
					"fontface" : 1,
					"fontsize" : 10.0,
					"id" : "obj-127",
					"maxclass" : "comment",
					"numinlets" : 1,
					"numoutlets" : 0,
					"patching_rect" : [ 717.028076171875, 78.96026611328125, 331.0, 18.0 ],
					"text" : "____________________ Light up RGB Led ____________________"
				}

			}
, 			{
				"box" : 				{
					"fontface" : 1,
					"fontsize" : 10.0,
					"id" : "obj-130",
					"maxclass" : "comment",
					"numinlets" : 1,
					"numoutlets" : 0,
					"patching_rect" : [ 896.528076171875, 332.96026611328125, 28.0, 18.0 ],
					"presentation" : 1,
					"presentation_rect" : [ 1511.028076171875, 144.3702392578125, 28.0, 18.0 ],
					"text" : "G"
				}

			}
, 			{
				"box" : 				{
					"fontface" : 1,
					"fontsize" : 10.0,
					"id" : "obj-131",
					"maxclass" : "comment",
					"numinlets" : 1,
					"numoutlets" : 0,
					"patching_rect" : [ 800.028076171875, 332.96026611328125, 30.0, 18.0 ],
					"presentation" : 1,
					"presentation_rect" : [ 1414.528076171875, 144.3702392578125, 30.0, 18.0 ],
					"text" : "R"
				}

			}
, 			{
				"box" : 				{
					"fontsize" : 10.0,
					"id" : "obj-76",
					"linecount" : 2,
					"maxclass" : "comment",
					"numinlets" : 1,
					"numoutlets" : 0,
					"patching_rect" : [ 805.028076171875, 410.50274658203125, 236.0, 29.0 ],
					"text" : "<- start with 66 to tell we are sending the RGB Led value. Message as: 66 B 32 G 32 R"
				}

			}
, 			{
				"box" : 				{
					"fontsize" : 10.0,
					"id" : "obj-133",
					"maxclass" : "newobj",
					"numinlets" : 1,
					"numoutlets" : 3,
					"outlettype" : [ "", "int", "int" ],
					"patching_rect" : [ 742.528076171875, 151.01263427734375, 54.0, 20.0 ],
					"text" : "change 0."
				}

			}
, 			{
				"box" : 				{
					"fontsize" : 10.0,
					"id" : "obj-78",
					"maxclass" : "newobj",
					"numinlets" : 1,
					"numoutlets" : 1,
					"outlettype" : [ "" ],
					"patching_rect" : [ 742.528076171875, 410.50274658203125, 61.0, 20.0 ],
					"text" : "prepend 66"
				}

			}
, 			{
				"box" : 				{
					"fontsize" : 10.0,
					"id" : "obj-79",
					"maxclass" : "newobj",
					"numinlets" : 1,
					"numoutlets" : 2,
					"outlettype" : [ "bang", "int" ],
					"patching_rect" : [ 742.528076171875, 310.96026611328125, 27.0, 20.0 ],
					"text" : "t b i"
				}

			}
, 			{
				"box" : 				{
					"fontsize" : 10.0,
					"id" : "obj-81",
					"maxclass" : "newobj",
					"numinlets" : 1,
					"numoutlets" : 2,
					"outlettype" : [ "int", "int" ],
					"patching_rect" : [ 837.028076171875, 310.96026611328125, 32.0, 20.0 ],
					"text" : "t 32 i"
				}

			}
, 			{
				"box" : 				{
					"fontsize" : 10.0,
					"id" : "obj-137",
					"maxclass" : "newobj",
					"numinlets" : 1,
					"numoutlets" : 3,
					"outlettype" : [ "int", "int", "clear" ],
					"patching_rect" : [ 934.028076171875, 310.96026611328125, 57.0, 20.0 ],
					"text" : "t 32 i clear"
				}

			}
, 			{
				"box" : 				{
					"fontsize" : 10.0,
					"id" : "obj-138",
					"maxclass" : "newobj",
					"numinlets" : 2,
					"numoutlets" : 2,
					"outlettype" : [ "", "" ],
					"patching_rect" : [ 742.528076171875, 388.50274658203125, 46.0, 20.0 ],
					"text" : "zl group"
				}

			}
, 			{
				"box" : 				{
					"fontsize" : 10.0,
					"id" : "obj-139",
					"maxclass" : "newobj",
					"numinlets" : 3,
					"numoutlets" : 1,
					"outlettype" : [ "list" ],
					"patching_rect" : [ 942.028076171875, 354.99285888671875, 36.0, 20.0 ],
					"text" : "atoi"
				}

			}
, 			{
				"box" : 				{
					"fontsize" : 10.0,
					"id" : "obj-140",
					"maxclass" : "number",
					"numinlets" : 1,
					"numoutlets" : 2,
					"outlettype" : [ "", "bang" ],
					"parameter_enable" : 0,
					"patching_rect" : [ 942.028076171875, 332.96026611328125, 48.0, 20.0 ],
					"presentation" : 1,
					"presentation_rect" : [ 1556.528076171875, 144.3702392578125, 48.0, 20.0 ]
				}

			}
, 			{
				"box" : 				{
					"fontsize" : 10.0,
					"id" : "obj-141",
					"maxclass" : "newobj",
					"numinlets" : 3,
					"numoutlets" : 1,
					"outlettype" : [ "list" ],
					"patching_rect" : [ 850.028076171875, 354.96026611328125, 36.0, 20.0 ],
					"text" : "atoi"
				}

			}
, 			{
				"box" : 				{
					"fontsize" : 10.0,
					"id" : "obj-142",
					"maxclass" : "number",
					"numinlets" : 1,
					"numoutlets" : 2,
					"outlettype" : [ "", "bang" ],
					"parameter_enable" : 0,
					"patching_rect" : [ 850.028076171875, 332.96026611328125, 45.0, 20.0 ],
					"presentation" : 1,
					"presentation_rect" : [ 1464.528076171875, 144.3702392578125, 45.0, 20.0 ]
				}

			}
, 			{
				"box" : 				{
					"fontsize" : 10.0,
					"id" : "obj-143",
					"maxclass" : "newobj",
					"numinlets" : 1,
					"numoutlets" : 4,
					"outlettype" : [ "int", "int", "int", "int" ],
					"patching_rect" : [ 742.528076171875, 284.96026611328125, 74.0, 20.0 ],
					"text" : "unpack 0 0 0 0"
				}

			}
, 			{
				"box" : 				{
					"fontsize" : 10.0,
					"id" : "obj-144",
					"maxclass" : "newobj",
					"numinlets" : 3,
					"numoutlets" : 1,
					"outlettype" : [ "list" ],
					"patching_rect" : [ 753.028076171875, 354.96026611328125, 36.0, 20.0 ],
					"text" : "atoi"
				}

			}
, 			{
				"box" : 				{
					"fontsize" : 10.0,
					"id" : "obj-82",
					"maxclass" : "number",
					"numinlets" : 1,
					"numoutlets" : 2,
					"outlettype" : [ "", "bang" ],
					"parameter_enable" : 0,
					"patching_rect" : [ 753.028076171875, 332.96026611328125, 45.0, 20.0 ],
					"presentation" : 1,
					"presentation_rect" : [ 1367.528076171875, 144.3702392578125, 45.0, 20.0 ]
				}

			}
, 			{
				"box" : 				{
					"fontsize" : 10.0,
					"id" : "obj-87",
					"maxclass" : "newobj",
					"numinlets" : 1,
					"numoutlets" : 1,
					"outlettype" : [ "" ],
					"patching_rect" : [ 742.528076171875, 263.40496826171875, 233.0, 20.0 ],
					"text" : "vexpr $f1 * 255 @scalarmode 1"
				}

			}
, 			{
				"box" : 				{
					"fontsize" : 10.0,
					"format" : 6,
					"id" : "obj-89",
					"maxclass" : "flonum",
					"numinlets" : 1,
					"numoutlets" : 2,
					"outlettype" : [ "", "bang" ],
					"parameter_enable" : 0,
					"patching_rect" : [ 742.528076171875, 173.01263427734375, 44.0, 20.0 ]
				}

			}
, 			{
				"box" : 				{
					"id" : "obj-148",
					"maxclass" : "swatch",
					"numinlets" : 3,
					"numoutlets" : 2,
					"outlettype" : [ "", "float" ],
					"parameter_enable" : 0,
					"patching_rect" : [ 742.528076171875, 217.40496826171875, 129.0, 43.607635498046875 ],
					"presentation" : 1,
					"presentation_rect" : [ 1438.528076171875, 96.026687622070313, 129.0, 43.607635498046875 ],
					"saturation" : 1.0
				}

			}
, 			{
				"box" : 				{
					"fontsize" : 10.0,
					"id" : "obj-149",
					"maxclass" : "message",
					"numinlets" : 2,
					"numoutlets" : 1,
					"outlettype" : [ "" ],
					"patching_rect" : [ 742.528076171875, 195.01263427734375, 62.0, 20.0 ],
					"text" : "hsl $1 1. $1"
				}

			}
, 			{
				"box" : 				{
					"fontsize" : 10.0,
					"id" : "obj-126",
					"maxclass" : "newobj",
					"numinlets" : 2,
					"numoutlets" : 1,
					"outlettype" : [ "int" ],
					"patching_rect" : [ 440.52813720703125, 365.07781982421875, 42.0, 20.0 ],
					"text" : "!- 1023"
				}

			}
, 			{
				"box" : 				{
					"fontsize" : 10.0,
					"id" : "obj-90",
					"maxclass" : "newobj",
					"numinlets" : 2,
					"numoutlets" : 1,
					"outlettype" : [ "" ],
					"patching_rect" : [ 347.02813720703125, 400.07781982421875, 54.0, 20.0 ],
					"text" : "pack 0. 0."
				}

			}
, 			{
				"box" : 				{
					"fontsize" : 10.0,
					"id" : "obj-92",
					"maxclass" : "newobj",
					"numinlets" : 2,
					"numoutlets" : 1,
					"outlettype" : [ "float" ],
					"patching_rect" : [ 347.02813720703125, 365.07781982421875, 41.0, 20.0 ],
					"text" : "/ 1023."
				}

			}
, 			{
				"box" : 				{
					"fontsize" : 10.0,
					"id" : "obj-93",
					"linecount" : 2,
					"maxclass" : "comment",
					"numinlets" : 1,
					"numoutlets" : 0,
					"patching_rect" : [ 436.40313720703125, 255.56793212890625, 47.0, 29.0 ],
					"text" : "group & format",
					"textcolor" : [ 0.317647010087967, 0.65490198135376, 0.97647100687027, 1.0 ]
				}

			}
, 			{
				"box" : 				{
					"fontsize" : 10.0,
					"id" : "obj-94",
					"maxclass" : "newobj",
					"numinlets" : 1,
					"numoutlets" : 2,
					"outlettype" : [ "bang", "bang" ],
					"patching_rect" : [ 276.52813720703125, 115.96026611328125, 30.0, 20.0 ],
					"text" : "t b b"
				}

			}
, 			{
				"box" : 				{
					"color" : [ 0.92549, 0.364706, 0.341176, 1.0 ],
					"fontname" : "Arial",
					"fontsize" : 10.0,
					"id" : "obj-95",
					"maxclass" : "newobj",
					"numinlets" : 1,
					"numoutlets" : 1,
					"outlettype" : [ "bang" ],
					"patching_rect" : [ 440.52813720703125, 67.96026611328125, 52.0, 20.0 ],
					"text" : "loadbang"
				}

			}
, 			{
				"box" : 				{
					"fontsize" : 10.0,
					"id" : "obj-96",
					"maxclass" : "message",
					"numinlets" : 2,
					"numoutlets" : 1,
					"outlettype" : [ "" ],
					"patching_rect" : [ 347.02813720703125, 157.96026611328125, 27.0, 20.0 ],
					"presentation" : 1,
					"presentation_rect" : [ 1432.028076171875, 255.4205322265625, 27.0, 20.0 ],
					"text" : "65"
				}

			}
, 			{
				"box" : 				{
					"fontface" : 1,
					"fontsize" : 10.0,
					"id" : "obj-98",
					"linecount" : 2,
					"maxclass" : "comment",
					"numinlets" : 1,
					"numoutlets" : 0,
					"patching_rect" : [ 572.028076171875, 343.47015380859375, 109.0, 29.0 ],
					"presentation" : 1,
					"presentation_linecount" : 2,
					"presentation_rect" : [ 1500.028076171875, 312.930419921875, 109.0, 29.0 ],
					"text" : "potentiometer: adjust audio volume"
				}

			}
, 			{
				"box" : 				{
					"fontsize" : 10.0,
					"id" : "obj-100",
					"maxclass" : "newobj",
					"numinlets" : 2,
					"numoutlets" : 1,
					"outlettype" : [ "int" ],
					"patching_rect" : [ 522.028076171875, 382.47015380859375, 29.5, 20.0 ],
					"text" : "/ 9"
				}

			}
, 			{
				"box" : 				{
					"fontsize" : 10.0,
					"id" : "obj-101",
					"maxclass" : "number",
					"numinlets" : 1,
					"numoutlets" : 2,
					"outlettype" : [ "", "bang" ],
					"parameter_enable" : 0,
					"patching_rect" : [ 522.028076171875, 343.47015380859375, 48.0, 20.0 ],
					"presentation" : 1,
					"presentation_rect" : [ 1450.028076171875, 312.930419921875, 48.0, 20.0 ]
				}

			}
, 			{
				"box" : 				{
					"fontsize" : 10.0,
					"id" : "obj-102",
					"maxclass" : "newobj",
					"numinlets" : 2,
					"numoutlets" : 1,
					"outlettype" : [ "float" ],
					"patching_rect" : [ 440.52813720703125, 387.07781982421875, 41.0, 20.0 ],
					"text" : "/ 1023."
				}

			}
, 			{
				"box" : 				{
					"bgcolor" : [ 0.836576, 0.903148, 0.643029, 1.0 ],
					"checkedcolor" : [ 0.317647, 0.654902, 0.976471, 1.0 ],
					"id" : "obj-103",
					"maxclass" : "toggle",
					"numinlets" : 1,
					"numoutlets" : 1,
					"outlettype" : [ "int" ],
					"parameter_enable" : 0,
					"patching_rect" : [ 276.52813720703125, 67.96026611328125, 24.0, 24.0 ],
					"presentation" : 1,
					"presentation_rect" : [ 1323.028076171875, 253.4205322265625, 24.0, 24.0 ],
					"thickness" : 80.0,
					"uncheckedcolor" : [ 0.682032, 0.698052, 0.748716, 1.0 ]
				}

			}
, 			{
				"box" : 				{
					"fontsize" : 10.0,
					"id" : "obj-104",
					"maxclass" : "message",
					"numinlets" : 2,
					"numoutlets" : 1,
					"outlettype" : [ "" ],
					"patching_rect" : [ 311.02813720703125, 157.96026611328125, 34.0, 20.0 ],
					"presentation" : 1,
					"presentation_rect" : [ 1393.028076171875, 255.4205322265625, 34.0, 20.0 ],
					"text" : "close"
				}

			}
, 			{
				"box" : 				{
					"bgcolor" : [ 0.376471, 0.384314, 0.4, 1.0 ],
					"bgcolor2" : [ 0.376471, 0.384314, 0.4, 1.0 ],
					"bgfillcolor_angle" : 270.0,
					"bgfillcolor_autogradient" : 0.0,
					"bgfillcolor_color" : [ 0.92549, 0.364706, 0.341176, 1.0 ],
					"bgfillcolor_color1" : [ 0.376471, 0.384314, 0.4, 1.0 ],
					"bgfillcolor_color2" : [ 0.290196, 0.309804, 0.301961, 1.0 ],
					"bgfillcolor_proportion" : 0.39,
					"bgfillcolor_type" : "color",
					"fontsize" : 10.0,
					"gradient" : 1,
					"id" : "obj-106",
					"maxclass" : "message",
					"numinlets" : 2,
					"numoutlets" : 1,
					"outlettype" : [ "" ],
					"patching_rect" : [ 440.52813720703125, 89.96026611328125, 30.0, 20.0 ],
					"text" : "print"
				}

			}
, 			{
				"box" : 				{
					"fontname" : "Arial",
					"fontsize" : 10.0,
					"id" : "obj-108",
					"maxclass" : "newobj",
					"numinlets" : 1,
					"numoutlets" : 1,
					"outlettype" : [ "" ],
					"patching_rect" : [ 598.028076171875, 177.96026611328125, 67.0, 20.0 ],
					"text" : "prepend port"
				}

			}
, 			{
				"box" : 				{
					"allowdrag" : 0,
					"bgcolor" : [ 0.836576, 0.903148, 0.643029, 1.0 ],
					"bgfillcolor_angle" : 270.0,
					"bgfillcolor_autogradient" : 0,
					"bgfillcolor_color" : [ 0.836576, 0.903148, 0.643029, 1.0 ],
					"bgfillcolor_color1" : [ 0.376471, 0.384314, 0.4, 1.0 ],
					"bgfillcolor_color2" : [ 0.290196, 0.309804, 0.301961, 1.0 ],
					"bgfillcolor_proportion" : 0.39,
					"bgfillcolor_type" : "color",
					"id" : "obj-109",
					"items" : [ "Bluetooth-Incoming-Port", ",", "EmilysBeatsSolo3-Wirele", ",", "EmilysBeatsSolo3-SPPSer" ],
					"maxclass" : "umenu",
					"numinlets" : 1,
					"numoutlets" : 3,
					"outlettype" : [ "int", "", "" ],
					"parameter_enable" : 0,
					"patching_rect" : [ 507.028076171875, 155.96026611328125, 200.0, 22.0 ],
					"presentation" : 1,
					"presentation_rect" : [ 1322.028076171875, 282.4205322265625, 200.0, 22.0 ]
				}

			}
, 			{
				"box" : 				{
					"fontname" : "Arial",
					"fontsize" : 10.0,
					"id" : "obj-112",
					"maxclass" : "newobj",
					"numinlets" : 1,
					"numoutlets" : 1,
					"outlettype" : [ "" ],
					"patching_rect" : [ 507.028076171875, 133.96026611328125, 83.0, 20.0 ],
					"text" : "prepend append"
				}

			}
, 			{
				"box" : 				{
					"fontname" : "Arial",
					"fontsize" : 10.0,
					"id" : "obj-113",
					"maxclass" : "newobj",
					"numinlets" : 1,
					"numoutlets" : 2,
					"outlettype" : [ "", "clear" ],
					"patching_rect" : [ 507.028076171875, 89.96026611328125, 43.0, 20.0 ],
					"text" : "t l clear"
				}

			}
, 			{
				"box" : 				{
					"fontname" : "Arial",
					"fontsize" : 10.0,
					"id" : "obj-128",
					"maxclass" : "newobj",
					"numinlets" : 1,
					"numoutlets" : 1,
					"outlettype" : [ "" ],
					"patching_rect" : [ 507.028076171875, 111.96026611328125, 24.0, 20.0 ],
					"text" : "iter"
				}

			}
, 			{
				"box" : 				{
					"fontname" : "Arial",
					"fontsize" : 10.0,
					"id" : "obj-129",
					"maxclass" : "newobj",
					"numinlets" : 2,
					"numoutlets" : 2,
					"outlettype" : [ "", "" ],
					"patching_rect" : [ 507.028076171875, 67.96026611328125, 53.0, 20.0 ],
					"text" : "route port"
				}

			}
, 			{
				"box" : 				{
					"fontsize" : 10.0,
					"id" : "obj-153",
					"maxclass" : "comment",
					"numinlets" : 1,
					"numoutlets" : 0,
					"patching_rect" : [ 302.52813720703125, 67.96026611328125, 142.0, 18.0 ],
					"text" : "<- start polling the serial port"
				}

			}
, 			{
				"box" : 				{
					"fontsize" : 10.0,
					"id" : "obj-160",
					"linecount" : 2,
					"maxclass" : "comment",
					"numinlets" : 1,
					"numoutlets" : 0,
					"patching_rect" : [ 375.52813720703125, 157.96026611328125, 114.0, 29.0 ],
					"presentation" : 1,
					"presentation_rect" : [ 1462.478515625, 257.4205322265625, 188.0, 18.0 ],
					"text" : "<- send byte 65 to get the sensor values"
				}

			}
, 			{
				"box" : 				{
					"fontface" : 1,
					"fontsize" : 10.0,
					"id" : "obj-161",
					"maxclass" : "comment",
					"numinlets" : 1,
					"numoutlets" : 0,
					"patching_rect" : [ 490.528076171875, 343.47015380859375, 23.0, 18.0 ],
					"presentation" : 1,
					"presentation_rect" : [ 1418.528076171875, 312.930419921875, 23.0, 18.0 ],
					"text" : "y"
				}

			}
, 			{
				"box" : 				{
					"fontface" : 1,
					"fontsize" : 10.0,
					"id" : "obj-162",
					"maxclass" : "comment",
					"numinlets" : 1,
					"numoutlets" : 0,
					"patching_rect" : [ 397.02813720703125, 343.47015380859375, 27.0, 18.0 ],
					"presentation" : 1,
					"presentation_rect" : [ 1325.028076171875, 312.930419921875, 27.0, 18.0 ],
					"text" : "x"
				}

			}
, 			{
				"box" : 				{
					"fontsize" : 10.0,
					"id" : "obj-163",
					"maxclass" : "number",
					"numinlets" : 1,
					"numoutlets" : 2,
					"outlettype" : [ "", "bang" ],
					"parameter_enable" : 0,
					"patching_rect" : [ 440.52813720703125, 343.47015380859375, 48.0, 20.0 ],
					"presentation" : 1,
					"presentation_rect" : [ 1368.528076171875, 312.930419921875, 48.0, 20.0 ]
				}

			}
, 			{
				"box" : 				{
					"fontsize" : 10.0,
					"id" : "obj-164",
					"maxclass" : "number",
					"numinlets" : 1,
					"numoutlets" : 2,
					"outlettype" : [ "", "bang" ],
					"parameter_enable" : 0,
					"patching_rect" : [ 347.02813720703125, 343.47015380859375, 48.0, 20.0 ],
					"presentation" : 1,
					"presentation_rect" : [ 1275.028076171875, 312.930419921875, 48.0, 20.0 ]
				}

			}
, 			{
				"box" : 				{
					"fontsize" : 10.0,
					"id" : "obj-165",
					"maxclass" : "newobj",
					"numinlets" : 1,
					"numoutlets" : 4,
					"outlettype" : [ "int", "int", "int", "int" ],
					"patching_rect" : [ 347.02813720703125, 321.47015380859375, 256.0, 20.0 ],
					"text" : "unpack 0 0 0 0"
				}

			}
, 			{
				"box" : 				{
					"color" : [ 0.317647, 0.654902, 0.976471, 1.0 ],
					"fontsize" : 10.0,
					"id" : "obj-166",
					"maxclass" : "newobj",
					"numinlets" : 1,
					"numoutlets" : 1,
					"outlettype" : [ "" ],
					"patching_rect" : [ 347.02813720703125, 299.56793212890625, 62.0, 20.0 ],
					"text" : "fromsymbol"
				}

			}
, 			{
				"box" : 				{
					"color" : [ 0.317647, 0.654902, 0.976471, 1.0 ],
					"fontsize" : 10.0,
					"id" : "obj-167",
					"maxclass" : "newobj",
					"numinlets" : 3,
					"numoutlets" : 1,
					"outlettype" : [ "int" ],
					"patching_rect" : [ 347.02813720703125, 277.56793212890625, 36.0, 20.0 ],
					"text" : "itoa"
				}

			}
, 			{
				"box" : 				{
					"color" : [ 0.317647, 0.654902, 0.976471, 1.0 ],
					"fontsize" : 10.0,
					"id" : "obj-168",
					"maxclass" : "newobj",
					"numinlets" : 2,
					"numoutlets" : 2,
					"outlettype" : [ "", "" ],
					"patching_rect" : [ 347.02813720703125, 255.56793212890625, 69.0, 20.0 ],
					"text" : "zl group 1000"
				}

			}
, 			{
				"box" : 				{
					"fontsize" : 10.0,
					"id" : "obj-173",
					"maxclass" : "newobj",
					"numinlets" : 2,
					"numoutlets" : 1,
					"outlettype" : [ "bang" ],
					"patching_rect" : [ 276.52813720703125, 93.96026611328125, 56.0, 20.0 ],
					"text" : "metro 100"
				}

			}
, 			{
				"box" : 				{
					"color" : [ 0.317647, 0.654902, 0.976471, 1.0 ],
					"fontsize" : 10.0,
					"id" : "obj-176",
					"maxclass" : "newobj",
					"numinlets" : 3,
					"numoutlets" : 3,
					"outlettype" : [ "bang", "bang", "" ],
					"patching_rect" : [ 347.02813720703125, 229.92767333984375, 50.0, 20.0 ],
					"text" : "sel 13 10"
				}

			}
, 			{
				"box" : 				{
					"fontsize" : 10.0,
					"id" : "obj-177",
					"maxclass" : "newobj",
					"numinlets" : 1,
					"numoutlets" : 2,
					"outlettype" : [ "int", "" ],
					"patching_rect" : [ 347.02813720703125, 207.96026611328125, 68.0, 20.0 ],
					"text" : "serial a 9600"
				}

			}
, 			{
				"box" : 				{
					"fontsize" : 10.0,
					"id" : "obj-178",
					"maxclass" : "message",
					"numinlets" : 2,
					"numoutlets" : 1,
					"outlettype" : [ "" ],
					"patching_rect" : [ 276.02813720703125, 157.96026611328125, 33.0, 20.0 ],
					"presentation" : 1,
					"presentation_rect" : [ 1354.028076171875, 255.4205322265625, 33.0, 20.0 ],
					"text" : "open"
				}

			}
, 			{
				"box" : 				{
					"angle" : 270.0,
					"bgcolor" : [ 0.862745, 0.870588, 0.878431, 0.0 ],
					"border" : 2,
					"id" : "obj-155",
					"maxclass" : "panel",
					"mode" : 0,
					"numinlets" : 1,
					"numoutlets" : 0,
					"patching_rect" : [ 272.02813720703125, 45.0, 779.99993896484375, 399.50274658203125 ],
					"proportion" : 0.39,
					"rounded" : 4
				}

			}
 ],
		"lines" : [ 			{
				"patchline" : 				{
					"destination" : [ "obj-100", 0 ],
					"order" : 1,
					"source" : [ "obj-101", 0 ]
				}

			}
, 			{
				"patchline" : 				{
					"destination" : [ "obj-150", 0 ],
					"midpoints" : [ 531.528076171875, 385.47015399999998, 724.028076000000056, 385.47015399999998, 724.028076000000056, 123.47015399999998, 752.028076171875, 123.47015399999998 ],
					"order" : 0,
					"source" : [ "obj-101", 0 ]
				}

			}
, 			{
				"patchline" : 				{
					"destination" : [ "obj-90", 1 ],
					"source" : [ "obj-102", 0 ]
				}

			}
, 			{
				"patchline" : 				{
					"destination" : [ "obj-173", 0 ],
					"source" : [ "obj-103", 0 ]
				}

			}
, 			{
				"patchline" : 				{
					"destination" : [ "obj-177", 0 ],
					"source" : [ "obj-104", 0 ]
				}

			}
, 			{
				"patchline" : 				{
					"color" : [ 0.92549, 0.364706, 0.341176, 0.9 ],
					"destination" : [ "obj-177", 0 ],
					"source" : [ "obj-106", 0 ]
				}

			}
, 			{
				"patchline" : 				{
					"destination" : [ "obj-177", 0 ],
					"source" : [ "obj-108", 0 ]
				}

			}
, 			{
				"patchline" : 				{
					"destination" : [ "obj-108", 0 ],
					"source" : [ "obj-109", 1 ]
				}

			}
, 			{
				"patchline" : 				{
					"destination" : [ "obj-109", 0 ],
					"source" : [ "obj-112", 0 ]
				}

			}
, 			{
				"patchline" : 				{
					"destination" : [ "obj-109", 0 ],
					"source" : [ "obj-113", 1 ]
				}

			}
, 			{
				"patchline" : 				{
					"destination" : [ "obj-128", 0 ],
					"source" : [ "obj-113", 0 ]
				}

			}
, 			{
				"patchline" : 				{
					"destination" : [ "obj-102", 0 ],
					"source" : [ "obj-126", 0 ]
				}

			}
, 			{
				"patchline" : 				{
					"destination" : [ "obj-112", 0 ],
					"source" : [ "obj-128", 0 ]
				}

			}
, 			{
				"patchline" : 				{
					"destination" : [ "obj-113", 0 ],
					"source" : [ "obj-129", 0 ]
				}

			}
, 			{
				"patchline" : 				{
					"destination" : [ "obj-89", 0 ],
					"source" : [ "obj-133", 0 ]
				}

			}
, 			{
				"patchline" : 				{
					"destination" : [ "obj-138", 0 ],
					"source" : [ "obj-137", 2 ]
				}

			}
, 			{
				"patchline" : 				{
					"destination" : [ "obj-138", 0 ],
					"source" : [ "obj-137", 0 ]
				}

			}
, 			{
				"patchline" : 				{
					"destination" : [ "obj-140", 0 ],
					"source" : [ "obj-137", 1 ]
				}

			}
, 			{
				"patchline" : 				{
					"destination" : [ "obj-78", 0 ],
					"source" : [ "obj-138", 0 ]
				}

			}
, 			{
				"patchline" : 				{
					"destination" : [ "obj-138", 0 ],
					"source" : [ "obj-139", 0 ]
				}

			}
, 			{
				"patchline" : 				{
					"destination" : [ "obj-139", 0 ],
					"source" : [ "obj-140", 0 ]
				}

			}
, 			{
				"patchline" : 				{
					"destination" : [ "obj-138", 0 ],
					"source" : [ "obj-141", 0 ]
				}

			}
, 			{
				"patchline" : 				{
					"destination" : [ "obj-141", 0 ],
					"source" : [ "obj-142", 0 ]
				}

			}
, 			{
				"patchline" : 				{
					"destination" : [ "obj-137", 0 ],
					"source" : [ "obj-143", 2 ]
				}

			}
, 			{
				"patchline" : 				{
					"destination" : [ "obj-79", 0 ],
					"source" : [ "obj-143", 0 ]
				}

			}
, 			{
				"patchline" : 				{
					"destination" : [ "obj-81", 0 ],
					"source" : [ "obj-143", 1 ]
				}

			}
, 			{
				"patchline" : 				{
					"destination" : [ "obj-138", 0 ],
					"source" : [ "obj-144", 0 ]
				}

			}
, 			{
				"patchline" : 				{
					"destination" : [ "obj-87", 0 ],
					"source" : [ "obj-148", 0 ]
				}

			}
, 			{
				"patchline" : 				{
					"destination" : [ "obj-148", 0 ],
					"source" : [ "obj-149", 0 ]
				}

			}
, 			{
				"patchline" : 				{
					"destination" : [ "obj-133", 0 ],
					"source" : [ "obj-150", 0 ]
				}

			}
, 			{
				"patchline" : 				{
					"destination" : [ "obj-126", 0 ],
					"source" : [ "obj-163", 0 ]
				}

			}
, 			{
				"patchline" : 				{
					"destination" : [ "obj-92", 0 ],
					"source" : [ "obj-164", 0 ]
				}

			}
, 			{
				"patchline" : 				{
					"destination" : [ "obj-101", 0 ],
					"source" : [ "obj-165", 2 ]
				}

			}
, 			{
				"patchline" : 				{
					"destination" : [ "obj-163", 0 ],
					"source" : [ "obj-165", 1 ]
				}

			}
, 			{
				"patchline" : 				{
					"destination" : [ "obj-164", 0 ],
					"source" : [ "obj-165", 0 ]
				}

			}
, 			{
				"patchline" : 				{
					"destination" : [ "obj-165", 0 ],
					"source" : [ "obj-166", 0 ]
				}

			}
, 			{
				"patchline" : 				{
					"destination" : [ "obj-166", 0 ],
					"source" : [ "obj-167", 0 ]
				}

			}
, 			{
				"patchline" : 				{
					"destination" : [ "obj-167", 0 ],
					"source" : [ "obj-168", 0 ]
				}

			}
, 			{
				"patchline" : 				{
					"destination" : [ "obj-94", 0 ],
					"source" : [ "obj-173", 0 ]
				}

			}
, 			{
				"patchline" : 				{
					"destination" : [ "obj-168", 0 ],
					"source" : [ "obj-176", 2 ]
				}

			}
, 			{
				"patchline" : 				{
					"destination" : [ "obj-168", 0 ],
					"source" : [ "obj-176", 0 ]
				}

			}
, 			{
				"patchline" : 				{
					"destination" : [ "obj-129", 0 ],
					"midpoints" : [ 405.52813720703125, 230.960265999999933, 711.028076000000056, 230.960265999999933, 711.028076000000056, 61.960265999999933, 516.528076171875, 61.960265999999933 ],
					"source" : [ "obj-177", 1 ]
				}

			}
, 			{
				"patchline" : 				{
					"destination" : [ "obj-176", 0 ],
					"source" : [ "obj-177", 0 ]
				}

			}
, 			{
				"patchline" : 				{
					"destination" : [ "obj-177", 0 ],
					"source" : [ "obj-178", 0 ]
				}

			}
, 			{
				"patchline" : 				{
					"color" : [ 0.960784, 0.827451, 0.156863, 0.9 ],
					"destination" : [ "obj-177", 0 ],
					"midpoints" : [ 752.028076171875, 439.502746999999999, 685.278076000000056, 439.502746999999999, 685.278076000000056, 204.960265999999933, 356.52813720703125, 204.960265999999933 ],
					"source" : [ "obj-78", 0 ]
				}

			}
, 			{
				"patchline" : 				{
					"destination" : [ "obj-138", 0 ],
					"source" : [ "obj-79", 0 ]
				}

			}
, 			{
				"patchline" : 				{
					"destination" : [ "obj-82", 0 ],
					"source" : [ "obj-79", 1 ]
				}

			}
, 			{
				"patchline" : 				{
					"destination" : [ "obj-138", 0 ],
					"source" : [ "obj-81", 0 ]
				}

			}
, 			{
				"patchline" : 				{
					"destination" : [ "obj-142", 0 ],
					"source" : [ "obj-81", 1 ]
				}

			}
, 			{
				"patchline" : 				{
					"destination" : [ "obj-144", 0 ],
					"source" : [ "obj-82", 0 ]
				}

			}
, 			{
				"patchline" : 				{
					"destination" : [ "obj-143", 0 ],
					"source" : [ "obj-87", 0 ]
				}

			}
, 			{
				"patchline" : 				{
					"destination" : [ "obj-149", 0 ],
					"source" : [ "obj-89", 0 ]
				}

			}
, 			{
				"patchline" : 				{
					"destination" : [ "obj-1", 0 ],
					"order" : 5,
					"source" : [ "obj-90", 0 ]
				}

			}
, 			{
				"patchline" : 				{
					"destination" : [ "obj-2", 0 ],
					"order" : 4,
					"source" : [ "obj-90", 0 ]
				}

			}
, 			{
				"patchline" : 				{
					"destination" : [ "obj-3", 0 ],
					"order" : 3,
					"source" : [ "obj-90", 0 ]
				}

			}
, 			{
				"patchline" : 				{
					"destination" : [ "obj-4", 0 ],
					"order" : 2,
					"source" : [ "obj-90", 0 ]
				}

			}
, 			{
				"patchline" : 				{
					"destination" : [ "obj-5", 0 ],
					"order" : 1,
					"source" : [ "obj-90", 0 ]
				}

			}
, 			{
				"patchline" : 				{
					"destination" : [ "obj-6", 0 ],
					"order" : 0,
					"source" : [ "obj-90", 0 ]
				}

			}
, 			{
				"patchline" : 				{
					"destination" : [ "obj-90", 0 ],
					"source" : [ "obj-92", 0 ]
				}

			}
, 			{
				"patchline" : 				{
					"destination" : [ "obj-177", 0 ],
					"source" : [ "obj-94", 0 ]
				}

			}
, 			{
				"patchline" : 				{
					"destination" : [ "obj-96", 0 ],
					"source" : [ "obj-94", 1 ]
				}

			}
, 			{
				"patchline" : 				{
					"destination" : [ "obj-106", 0 ],
					"source" : [ "obj-95", 0 ]
				}

			}
, 			{
				"patchline" : 				{
					"destination" : [ "obj-177", 0 ],
					"source" : [ "obj-96", 0 ]
				}

			}
 ],
		"dependency_cache" : [  ],
		"autosave" : 0,
		"styles" : [ 			{
				"name" : "AudioStatus_Menu",
				"default" : 				{
					"bgfillcolor" : 					{
						"type" : "color",
						"color" : [ 0.294118, 0.313726, 0.337255, 1 ],
						"color1" : [ 0.454902, 0.462745, 0.482353, 0.0 ],
						"color2" : [ 0.290196, 0.309804, 0.301961, 1.0 ],
						"angle" : 270.0,
						"proportion" : 0.39,
						"autogradient" : 0
					}

				}
,
				"parentstyle" : "",
				"multi" : 0
			}
, 			{
				"name" : "jfc-style-01",
				"default" : 				{
					"bgfillcolor" : 					{
						"type" : "color",
						"color" : [ 0.862745, 0.870588, 0.878431, 1.0 ],
						"color1" : [ 0.376471, 0.384314, 0.4, 1.0 ],
						"color2" : [ 0.290196, 0.309804, 0.301961, 1.0 ],
						"angle" : 270.0,
						"proportion" : 0.39,
						"autogradient" : 0
					}
,
					"color" : [ 0.031373, 0.541176, 0.498039, 1.0 ],
					"accentcolor" : [ 0.65098, 0.666667, 0.662745, 1.0 ],
					"fontsize" : [ 10.0 ],
					"bgcolor" : [ 0.862745, 0.870588, 0.878431, 1.0 ],
					"textcolor_inverse" : [ 0.0, 0.0, 0.0, 1.0 ]
				}
,
				"parentstyle" : "",
				"multi" : 0
			}
, 			{
				"name" : "newobjBlue-1",
				"default" : 				{
					"accentcolor" : [ 0.317647, 0.654902, 0.976471, 1.0 ]
				}
,
				"parentstyle" : "",
				"multi" : 0
			}
, 			{
				"name" : "newobjGreen-1",
				"default" : 				{
					"accentcolor" : [ 0.0, 0.533333, 0.168627, 1.0 ]
				}
,
				"parentstyle" : "",
				"multi" : 0
			}
, 			{
				"name" : "newobjYellow-1",
				"default" : 				{
					"accentcolor" : [ 0.82517, 0.78181, 0.059545, 1.0 ],
					"fontsize" : [ 12.059008 ]
				}
,
				"parentstyle" : "",
				"multi" : 0
			}
, 			{
				"name" : "numberGold-1",
				"default" : 				{
					"accentcolor" : [ 0.764706, 0.592157, 0.101961, 1.0 ]
				}
,
				"parentstyle" : "",
				"multi" : 0
			}
 ]
	}

}
